<svg xmlns="http://www.w3.org/2000/svg" viewBox="0 0 1200 2246" font-size="14" role="img" aria-label="The .flx bytecode file format">
  <style>
    text{font-family:-apple-system,BlinkMacSystemFont,'Segoe UI',Roboto,Helvetica,Arial,sans-serif;fill:#1f2328}
    .title{font-size:31px;font-weight:700}
    .sub{font-size:15px;fill:#57606a}
    .h{font-size:19px;font-weight:700}
    .lbl{font-size:14px;font-weight:600}
    .t{font-size:13px}
    .n{font-size:12.5px;fill:#57606a}
    .muted{fill:#57606a}
    .mono{font-family:ui-monospace,'SF Mono',Menlo,Consolas,monospace}
    .off{font-family:ui-monospace,Menlo,Consolas,monospace;font-size:12.5px;fill:#0550ae}
    .panel{fill:#f6f8fa;stroke:#d0d7de;stroke-width:1}
    .card{fill:#ffffff;stroke:#d0d7de;stroke-width:1}
  </style>
  <defs>
    <marker id="ar" markerWidth="9" markerHeight="9" refX="6.5" refY="3" orient="auto"><path d="M0,0 L6.5,3 L0,6 Z" fill="#9a6700"/></marker>
  </defs>

  <rect width="1200" height="2246" fill="#ffffff"/>

  <!-- ============ TITLE ============ -->
  <rect x="36" y="28" width="6" height="60" rx="3" fill="#0969da"/>
  <text class="title" x="58" y="58">The <tspan class="mono">.flx</tspan> bytecode file format</text>
  <text class="sub" x="58" y="82">Magic <tspan class="mono" font-weight="700">FLS2</tspan> · little-endian throughout · Ed25519-signable · shared string pool · portable fixed-width integers</text>

  <!-- ============ 1 · FILE LAYOUT ============ -->
  <rect class="panel" x="36" y="104" width="1128" height="228" rx="10"/>
  <text class="h" x="58" y="138">1 · File layout <tspan class="n" font-weight="400">(byte offset increases →)</tspan></text>
  <path d="M70 168 v-8 h1052 v8" fill="none" stroke="#8250df" stroke-width="1.4"/>
  <text class="n" x="596" y="156" text-anchor="middle" fill="#8250df">Ed25519 signature covers SHA-256 of the whole file (signature field zeroed)</text>
  <g>
    <rect x="70"  y="182" width="150" height="70" rx="7" fill="#ddf4ff" stroke="#0969da"/>
    <text class="lbl" x="145" y="212" text-anchor="middle" fill="#0a3069">Header</text>
    <text class="n"   x="145" y="232" text-anchor="middle">192 B, fixed</text>
    <rect x="236" y="182" width="210" height="70" rx="7" fill="#fff8c5" stroke="#9a6700" stroke-dasharray="5 4"/>
    <text class="lbl" x="341" y="212" text-anchor="middle" fill="#7a4f01">Bundle TOC</text>
    <text class="n"   x="341" y="232" text-anchor="middle">only if FLAG_BUNDLE</text>
    <rect x="462" y="182" width="180" height="70" rx="7" fill="#dafbe1" stroke="#1a7f37"/>
    <text class="lbl" x="552" y="212" text-anchor="middle" fill="#0f5323">String pool</text>
    <text class="n"   x="552" y="232" text-anchor="middle">deduped strings</text>
    <rect x="658" y="182" width="464" height="70" rx="7" fill="#d3f3f5" stroke="#1b7c83"/>
    <text class="lbl" x="890" y="212" text-anchor="middle" fill="#0c5b61">Code region</text>
    <text class="n"   x="890" y="232" text-anchor="middle">main chunk, with nested function chunks inline</text>
  </g>
  <text class="off" x="70" y="272">@0</text>
  <text class="off" x="220" y="272" text-anchor="middle">@192</text>
  <path d="M462 286 v8 h660 v-8" fill="none" stroke="#1a7f37" stroke-width="1.4"/>
  <text class="n" x="792" y="312" text-anchor="middle" fill="#0f5323">main section = string pool + code  ·  the unit a bundle copies per dependency (offsets @56–@76)</text>

  <!-- ============ 2 · HEADER ============ -->
  <rect class="panel" x="36" y="348" width="1128" height="392" rx="10"/>
  <text class="h" x="58" y="382">2 · Header — 192 bytes, fixed layout</text>
  <line x1="600" y1="398" x2="600" y2="720" stroke="#d0d7de"/>
  <text class="n" x="64"  y="414" font-weight="700">off   sz   field</text>
  <text class="n" x="614" y="414" font-weight="700">off   sz   field</text>
  <g class="t">
    <g transform="translate(0,438)"><text class="off" x="64">@0</text><text class="n" x="112">4</text><text class="mono" x="150">magic</text><text class="muted" x="300">"FLS2"</text></g>
    <g transform="translate(0,466)"><text class="off" x="64">@4</text><text class="n" x="112">4</text><text class="mono" x="150">version</text><text class="muted" x="300">format M.m.p.b (u32)</text></g>
    <g transform="translate(0,494)"><text class="off" x="64">@8</text><text class="n" x="112">4</text><text class="mono" x="150">compiler_version</text><text class="muted" x="360">u32</text></g>
    <g transform="translate(0,522)"><text class="off" x="64">@12</text><text class="n" x="112">32</text><text class="mono" x="150">name</text><text class="muted" x="300">output basename, NUL-term ‡</text></g>
    <g transform="translate(0,550)"><text class="off" x="64">@44</text><text class="n" x="112">4</text><text class="mono" x="150">flags</text><text class="muted" x="300">bit0 = FLAG_BUNDLE</text></g>
    <g transform="translate(0,578)"><text class="off" x="64">@48</text><text class="n" x="112">8</text><text class="mono" x="150">entry</text><text class="muted" x="300">entry-fn hash · 0 = library</text></g>
    <g transform="translate(0,606)"><text class="off" x="64">@56</text><text class="n" x="112">4</text><text class="mono" x="150">main_section_start</text></g>
    <g transform="translate(0,634)"><text class="off" x="64">@60</text><text class="n" x="112">4</text><text class="mono" x="150">string_pool_start</text></g>
    <g transform="translate(0,662)"><text class="off" x="64">@64</text><text class="n" x="112">4</text><text class="mono" x="150">string_pool_end</text></g>
    <g transform="translate(0,690)"><text class="off" x="64">@68</text><text class="n" x="112">4</text><text class="mono" x="150">code_start</text><text class="n" x="330" y="0" fill="#0550ae">↑ absolute, validated on load</text></g>
  </g>
  <g class="t">
    <g transform="translate(0,438)"><text class="off" x="614">@72</text><text class="n" x="666">4</text><text class="mono" x="704">code_end</text></g>
    <g transform="translate(0,466)"><text class="off" x="614">@76</text><text class="n" x="666">4</text><text class="mono" x="704">main_section_end</text></g>
    <g transform="translate(0,494)"><text class="off" x="614">@80</text><text class="n" x="666">2</text><text class="mono muted" x="704">(reserved)</text></g>
    <g transform="translate(0,522)"><text class="off" x="614">@82</text><text class="n" x="666">1</text><text class="mono" x="704">sig_alg</text><text class="muted" x="850">0 = unsigned · 2 = Ed25519</text></g>
    <g transform="translate(0,550)"><text class="off" x="614">@84</text><text class="n" x="666">32</text><text class="mono" x="704">pubkey</text><text class="muted" x="850">Ed25519 public key</text></g>
    <g transform="translate(0,578)"><text class="off" x="614">@116</text><text class="n" x="666">64</text><text class="mono" x="704">signature</text><text class="muted" x="850">Ed25519 signature</text></g>
    <g transform="translate(0,606)"><text class="off" x="614">@180</text><text class="n" x="666">12</text><text class="mono muted" x="704">(padding → 192)</text></g>
    <rect x="614" y="628" width="518" height="86" rx="8" fill="#fbefff" stroke="#8250df"/>
    <text class="lbl" x="628" y="650" fill="#5a2ca0">Ed25519 signing block (@82–@179)</text>
    <text class="n" x="628" y="672">Signs the domain-separated message</text>
    <text class="mono n" x="628" y="691">"flaris.flx.sig.v1" ‖ 0x00 ‖ SHA-256(file, sig=0)</text>
    <text class="n" x="628" y="708">Trust anchors compiled in + ~/.flaris/trusted_keys</text>
  </g>

  <!-- ============ 3 · CHUNK ============ -->
  <rect class="panel" x="36" y="756" width="1128" height="196" rx="10"/>
  <text class="h" x="58" y="790">3 · Chunk — recursive (the code region is one chunk; each function constant nests another)</text>
  <g>
    <rect x="58"  y="806" width="150" height="52" rx="7" fill="#d3f3f5" stroke="#1b7c83"/>
    <text class="lbl" x="133" y="830" text-anchor="middle" fill="#0c5b61">ChunkHeader</text><text class="n" x="133" y="848" text-anchor="middle">13 B</text>
    <rect x="222" y="806" width="210" height="52" rx="7" fill="#ffebe9" stroke="#cf222e"/>
    <text class="lbl" x="327" y="830" text-anchor="middle" fill="#8a1c24">constants[consts]</text><text class="n" x="327" y="848" text-anchor="middle">values (see 4)</text>
    <rect x="446" y="806" width="230" height="52" rx="7" fill="#d3f3f5" stroke="#1b7c83"/>
    <text class="lbl" x="561" y="830" text-anchor="middle" fill="#0c5b61">code[codelen]</text><text class="n" x="561" y="848" text-anchor="middle">bytecode · LE operands</text>
    <rect x="690" y="806" width="170" height="52" rx="7" fill="#f6f8fa" stroke="#9a6700" stroke-dasharray="5 4"/>
    <text class="lbl" x="775" y="830" text-anchor="middle" fill="#7a4f01">debug info</text><text class="n" x="775" y="848" text-anchor="middle">if CHUNK_FLAG_DBG</text>
    <rect x="874" y="806" width="248" height="52" rx="7" fill="#f6f8fa" stroke="#9a6700" stroke-dasharray="5 4"/>
    <text class="lbl" x="998" y="830" text-anchor="middle" fill="#7a4f01">JIT IR</text><text class="n" x="998" y="848" text-anchor="middle">if CHUNK_FLAG_HAS_JIT_IR</text>
  </g>
  <text class="t mono" x="58" y="892">ChunkHeader = magic u8 (0xA5) · version u32 · consts u16 · codelen u32 · flags u16</text>
  <text class="n" x="58" y="914">flags: DBG = 0x0001 · HAS_JIT_IR = 0x0002.  A <tspan class="mono">function</tspan> constant carries a whole nested Chunk — the loader caps nesting at depth 64 (MAX_CHUNK_DEPTH).</text>
  <text class="n" x="58" y="934">A single-byte <tspan class="mono">is_const</tspan> flag follows every value's type tag (see 4); the string pool (5) is read once, before the top chunk.</text>

  <!-- ============ 4 · VALUE ENCODING ============ -->
  <rect class="panel" x="36" y="968" width="1128" height="300" rx="10"/>
  <text class="h" x="58" y="1002">4 · Constant / value encoding</text>
  <rect class="card" x="58" y="1018" width="530" height="58" rx="8"/>
  <text class="n" x="72" y="1040">inline value</text>
  <text class="mono t" x="72" y="1062">[ type : u32 ] [ is_const : u8 ] [ payload ]</text>
  <rect class="card" x="602" y="1018" width="520" height="58" rx="8"/>
  <text class="n" x="616" y="1040">pool reference → shared string pool (see 5)</text>
  <text class="mono t" x="616" y="1062">[ 0xFFFFFF01 : u32 ] [ slot : u16 ]</text>
  <text class="lbl" x="58" y="1102">payload by type</text>
  <g class="t">
    <g transform="translate(58,1126)">
      <text class="mono" x="0" y="0">nil</text><text class="muted" x="150" y="0">— (no payload)</text>
      <text class="mono" x="0" y="26">bool</text><text class="muted" x="150" y="26">u8</text>
      <text class="mono" x="0" y="52">char</text><text class="muted" x="150" y="52">u32</text>
      <text class="mono" x="0" y="78">int</text><text class="muted" x="150" y="78">i64</text>
      <text class="mono" x="0" y="104">float</text><text class="muted" x="150" y="104">f64</text>
    </g>
    <g transform="translate(600,1126)">
      <text class="mono" x="0" y="0">string</text><text class="muted" x="120" y="0">hash u64 · len u32 · bytes[len]</text>
      <text class="mono" x="0" y="26">array</text><text class="muted" x="120" y="26">count u32 · flat u8 · elements…</text>
      <text class="mono" x="0" y="52">object</text><text class="muted" x="120" y="52">count u32 · (key,value) × count</text>
      <text class="mono" x="0" y="78">function</text><text class="muted" x="120" y="78">arity u8 · locals u8 · flags u32 · ret u32 ·</text>
      <text class="muted" x="120" y="100">arg_types u32×16 · name (value) · nested Chunk</text>
    </g>
  </g>
  <text class="n" x="58" y="1252">Strings appearing more than once in a file are stored once in the pool and emitted as pool references, shrinking shipped <tspan class="mono">.flx</tspan> ~15–30%.</text>

  <!-- ============ 5 · STRING POOL ============ -->
  <rect class="panel" x="36" y="1284" width="1128" height="234" rx="10"/>
  <text class="h" x="58" y="1318">5 · String pool — every repeated string stored once</text>
  <text class="n" x="58" y="1342">Lives at <tspan class="mono">string_pool_start..string_pool_end</tspan> (header @60/@64), inside the main section, read once before the top chunk.</text>

  <!-- pool box row -->
  <g>
    <rect x="58"  y="1358" width="118" height="48" rx="7" fill="#dafbe1" stroke="#1a7f37"/>
    <text class="mono t" x="117" y="1382" text-anchor="middle" fill="#0f5323">count : u16</text>
    <text class="n" x="117" y="1399" text-anchor="middle">N entries</text>
    <rect x="192" y="1358" width="176" height="48" rx="7" fill="#ffffff" stroke="#1a7f37"/>
    <text class="lbl" x="280" y="1380" text-anchor="middle" fill="#0f5323">entry 0</text><text class="n" x="280" y="1398" text-anchor="middle">slot 0</text>
    <rect x="384" y="1358" width="176" height="48" rx="7" fill="#ffffff" stroke="#1a7f37"/>
    <text class="lbl" x="472" y="1380" text-anchor="middle" fill="#0f5323">entry 1</text><text class="n" x="472" y="1398" text-anchor="middle">slot 1</text>
    <rect x="576" y="1358" width="150" height="48" rx="7" fill="#ffffff" stroke="#1a7f37" stroke-dasharray="5 4"/>
    <text class="lbl" x="651" y="1386" text-anchor="middle" fill="#0f5323">entry … N-1</text>
  </g>

  <!-- entry breakdown -->
  <text class="lbl" x="58" y="1440">pool entry (variable length)</text>
  <rect class="card" x="58" y="1452" width="1064" height="40" rx="8"/>
  <text class="mono t" x="72" y="1477">[ is_static : u8 ] [ hash : u64  (xxHash64) ] [ len : u32 ] [ bytes : len ]</text>
  <text class="n" x="58" y="1510">A constant references entry <tspan class="mono">i</tspan> via the pool-reference value <tspan class="mono">0xFFFFFF01, slot=i</tspan> (see 4). <tspan class="mono">is_static</tspan> is advisory (ignored on load); each reference takes its own ref on the shared Object.</text>

  <!-- ============ 6 · BUNDLE ============ -->
  <rect class="panel" x="36" y="1534" width="1128" height="488" rx="10"/>
  <text class="h" x="58" y="1568">6 · Bundle (FLAG_BUNDLE) — a self-contained, multi-module <tspan class="mono">.flx</tspan></text>
  <text class="n" x="58" y="1592">Built with <tspan class="mono">flarisvm --compile app.fls out.flx --bundle=Logger.flx;Router.flx</tspan>. FLAG_BUNDLE (header @44 bit0) is set; the VM pre-loads</text>
  <text class="n" x="58" y="1610">every embedded dependency before execution — no filesystem access for them. Cap: <tspan class="mono">MAX_BUNDLE_DEPS = 1024</tspan>.</text>

  <!-- example file structure band -->
  <text class="lbl" x="58" y="1638">File structure of a bundle (example: app + 2 deps)</text>
  <g>
    <rect x="58"  y="1648" width="150" height="56" rx="7" fill="#ddf4ff" stroke="#0969da"/>
    <text class="t" x="133" y="1672" text-anchor="middle" fill="#0a3069">Header</text><text class="n" x="133" y="1690" text-anchor="middle">FLAG_BUNDLE</text>
    <rect x="222" y="1648" width="170" height="56" rx="7" fill="#fff8c5" stroke="#9a6700"/>
    <text class="t" x="307" y="1672" text-anchor="middle" fill="#7a4f01">TOC</text><text class="n" x="307" y="1690" text-anchor="middle">count=2 + 2 entries</text>
    <rect x="406" y="1648" width="196" height="56" rx="7" fill="#d3f3f5" stroke="#1b7c83"/>
    <text class="t" x="504" y="1672" text-anchor="middle" fill="#0c5b61">app · main section</text><text class="n" x="504" y="1690" text-anchor="middle">pool + code</text>
    <rect x="616" y="1648" width="176" height="56" rx="7" fill="#dafbe1" stroke="#1a7f37"/>
    <text class="t" x="704" y="1672" text-anchor="middle" fill="#0f5323">Logger · main section</text><text class="n" x="704" y="1690" text-anchor="middle">dep 0</text>
    <rect x="806" y="1648" width="176" height="56" rx="7" fill="#dafbe1" stroke="#1a7f37"/>
    <text class="t" x="894" y="1672" text-anchor="middle" fill="#0f5323">Router · main section</text><text class="n" x="894" y="1690" text-anchor="middle">dep 1</text>
  </g>
  <text class="off" x="58"  y="1722">@0</text>
  <text class="off" x="222" y="1722">@192</text>
  <text class="off" x="406" y="1722">main_section_start</text>
  <text class="off" x="616" y="1722">entry[0].offset</text>
  <text class="off" x="806" y="1722">entry[1].offset</text>
  <!-- arrows: TOC entries locate the dep sections -->
  <path d="M307 1730 q0 22 200 22 q90 0 90 -18" fill="none" stroke="#9a6700" stroke-width="1.2" marker-end="url(#ar)"/>
  <path d="M307 1730 q0 34 390 34 q100 0 100 -30" fill="none" stroke="#9a6700" stroke-width="1.2" marker-end="url(#ar)"/>
  <text class="n" x="1000" y="1690" fill="#7a4f01">← each entry's</text>
  <text class="n" x="1000" y="1706" fill="#7a4f01">offset/size locate</text>
  <text class="n" x="1000" y="1722" fill="#7a4f01">its dep section</text>

  <!-- TOC internal format -->
  <text class="lbl" x="58" y="1792">Bundle TOC — at @192, immediately after the header</text>
  <rect class="card" x="58" y="1804" width="1064" height="36" rx="8"/>
  <text class="mono t" x="72" y="1827">[ entry_count : u16 ]   then   BundleEntry × entry_count</text>

  <text class="lbl" x="58" y="1866"><tspan class="mono">BundleEntry</tspan> — 152 bytes, no padding</text>
  <g class="t">
    <g transform="translate(72,1888)">
      <text class="mono" x="0" y="0">name[64]</text><text class="muted" x="150" y="0">module name, NUL-term, no ".flx"</text>
      <text class="mono" x="0" y="24">version : u32</text><text class="muted" x="150" y="24">0xMMmmppbb</text>
      <text class="mono" x="0" y="48">offset : u64</text><text class="muted" x="150" y="48">absolute offset of dep's main section</text>
      <text class="mono" x="0" y="72">size : u32</text><text class="muted" x="150" y="72">byte length of that section</text>
    </g>
    <g transform="translate(600,1888)">
      <text class="mono" x="0" y="0">sha256[32]</text><text class="muted" x="150" y="0">dep's whole-file SHA-256 — the <tspan class="mono">library()</tspan> pin</text>
      <text class="mono" x="0" y="24">sig_alg : u8</text><text class="muted" x="150" y="24">dep's signature scheme (0 = unsigned)</text>
      <text class="mono" x="0" y="48">pubkey[32]</text><text class="muted" x="150" y="48">dep's Ed25519 key (zero if unsigned)</text>
      <text class="mono" x="0" y="72">reserved[7]</text><text class="muted" x="150" y="72">zero</text>
    </g>
  </g>
  <text class="n" x="58" y="1988">A bundled dep keeps only its main section (its own header is dropped), so the pin travels in <tspan class="mono">sha256</tspan> here — a bundled and an on-disk dep pin identically.</text>
  <text class="n" x="58" y="2006">The region ranges (<tspan class="mono">offset</tspan>, <tspan class="mono">size</tspan>) are bounds-checked against the file before any allocation.</text>

  <!-- ============ 7 · INTEGRITY ============ -->
  <rect class="panel" x="36" y="2038" width="1128" height="186" rx="10"/>
  <text class="h" x="58" y="2072">7 · Integrity, byte order &amp; load-time verification</text>
  <g class="t">
    <text x="58" y="2098">• <tspan class="lbl">Byte order:</tspan> little-endian throughout — header, string pool, bytecode operands and JIT IR (native order on x86/ARM, no byte-swap to decode).</text>
    <text x="58" y="2122">• <tspan class="lbl">Pin / fingerprint:</tspan> whole-file SHA-256 equals <tspan class="mono">sha256sum file.flx</tspan>; <tspan class="mono">library(name, version, hash)</tspan> enforces it.</text>
    <text x="58" y="2146">• <tspan class="lbl">Signature:</tspan> Ed25519 over the domain-separated digest above; trust anchors are compiled in, plus the user's <tspan class="mono">~/.flaris/trusted_keys</tspan>.</text>
    <text x="58" y="2170">• <tspan class="lbl">Verification:</tspan> the VM checks operand bounds, jump-target alignment and per-frame stack depth before executing; a bad instruction raises <tspan class="mono">IllegalInstruction</tspan> (16).</text>
    <text x="58" y="2194">• <tspan class="lbl">Portability:</tspan> only fixed-width integer types on disk; no pointer-sized fields. Opcode numbering is versioned — an older chunk is rejected with a recompile hint (version floor).</text>
    <text class="n" x="58" y="2216">‡ the 32-byte <tspan class="mono">name</tspan> (output basename) is part of the signed / fingerprinted bytes, so renaming the output changes the pin.</text>
  </g>
</svg>
